<?xml version="1.0" encoding="UTF-8" standalone="no"?>
<svg width="20px" height="20px" viewBox="0 0 20 20" version="1.1" xmlns="http://www.w3.org/2000/svg" xmlns:xlink="http://www.w3.org/1999/xlink">
    <!-- Generator: Sketch 3.8.3 (29802) - http://www.bohemiancoding.com/sketch -->
    <title>mail_hover</title>
    <desc>Created with Sketch.</desc>
    <defs></defs>
    <g id="specification" stroke="none" stroke-width="1" fill="none" fill-rule="evenodd">
        <g id="spec" transform="translate(-489.000000, -184.000000)" fill="#FFFFFF">
            <g id="mail_hover" transform="translate(489.000000, 184.000000)">
                <path d="M2,0 C0.9,0 0,0.9 0,2 L0,18 C0,19.1 0.9,20 2,20 L18,20 C19.1,20 20,19.1 20,18 L20,2 C20,0.9 19.1,0 18,0 L2,0 Z M15.6,5 L4.4,5 C3.63,5 3,5.61875 3,6.375 L3,14.625 C3,15.38125 3.63,16 4.4,16 L15.6,16 C16.37,16 17,15.38125 17,14.625 L17,6.375 C17,5.61875 16.37,5 15.6,5 Z M15,7.42857143 L9.5,11 L4,7.42857143 L4,6 L9.5,9.57142857 L15,6 L15,7.42857143 L15,7.42857143 Z" id="Combined-Shape"></path>
            </g>
        </g>
    </g>
</svg>